<?xml version="1.0" encoding="utf-8"?>
<!-- Generator: Adobe Illustrator 19.0.0, SVG Export Plug-In . SVG Version: 6.00 Build 0)  -->
<svg version="1.1" id="Layer_1" xmlns="http://www.w3.org/2000/svg" xmlns:xlink="http://www.w3.org/1999/xlink" x="0px" y="0px"
	 viewBox="0 0 612 792" style="enable-background:new 0 0 612 792;" xml:space="preserve">
<style type="text/css">
	.st0{fill-rule:evenodd;clip-rule:evenodd;}
</style>
<g id="XMLID_1_">
	<path id="XMLID_2_" class="st0" d="M254.7,331c-3.3,5.8-6.1,11.1-6.1,11.7c0.1,0.6,2.7,5.6,5.9,11.1l5.9,10l38.8,0.2l38.9,0.3
		l6-10.6c3.3-5.9,5.9-11.1,5.7-11.6c-0.1-0.5-2.8-5.4-5.9-10.9l-5.7-9.9h-13.1h-13.2l-5.9,10.5l-5.9,10.4l-13,0.1H274l-6.3-11
		c-3.4-6.1-6.4-11-6.5-11C261,320.3,258.1,325.1,254.7,331z"/>
	<path id="XMLID_3_" class="st0" d="M303.6,398.8c0,2.2,0.4,2.6,2.3,2.3c1.4-0.2,2.2-1,2.2-2.3s-0.8-2.1-2.2-2.3
		C304,396.2,303.6,396.6,303.6,398.8z"/>
	<path id="XMLID_4_" class="st0" d="M294.6,413.3c0,15.3,0.1,16,2,16s2-0.7,2-16s-0.1-16-2-16S294.6,398,294.6,413.3z"/>
	<path id="XMLID_5_" class="st0" d="M280.6,414.3v15h5.5c4.8,0,5.5-0.2,5.5-2c0-1.6-0.7-2-3.5-2h-3.5v-5c0-4.7,0.2-5,2.5-5
		c3.2,0,3.4-2.7,0.3-3.2c-2-0.3-2.3-0.9-2.3-4.8c0-4.3,0.1-4.5,3.3-4.8c2-0.2,3.2-0.9,3.2-1.8c0-1-1.4-1.4-5.5-1.4h-5.5V414.3z"/>
	<path id="XMLID_6_" class="st0" d="M314,402.3c-0.4,1.6-1,3-1.5,3s-0.9,0.7-0.9,1.5s0.5,1.5,1,1.5c0.6,0,1,3.8,1,9.4
		c0,10.1,0.9,12,5.2,11.4c2.7-0.4,3.8-3.7,1.1-3.4c-1.6,0.1-1.8-0.9-2.1-8.7c-0.3-8.2-0.2-8.7,1.8-8.7c1.1,0,2-0.7,2-1.5
		s-0.9-1.5-2-1.5c-1.6,0-2-0.7-2-3c0-2-0.5-3-1.5-3C315.2,399.3,314.3,400.5,314,402.3z"/>
	<path id="XMLID_7_" class="st0" d="M303.6,417.3c0,11.3,0.1,12,2,12s2-0.7,2-12s-0.1-12-2-12S303.6,406,303.6,417.3z"/>
	<path id="XMLID_8_" class="st0" d="M324.9,409c-2,5-1.4,15.4,1.1,18.2c3.5,3.8,10.6,1.6,10.6-3.2c0-2.5-3.7-2.1-4.3,0.4
		c-0.9,3.2-3.2,1.7-3.5-2.4c-0.3-3.5-0.2-3.6,3.5-3.9c3.7-0.3,3.8-0.4,4.1-4.5c0.5-6.2-1-8.3-5.9-8.3
		C326.8,405.3,326.4,405.6,324.9,409z M332.4,412.1c0.3,2.7,0,3.2-1.7,3.2c-1.7,0-2.1-0.6-2.1-3.6c0-2.8,0.3-3.5,1.8-3.2
		C331.5,408.7,332.2,409.9,332.4,412.1z"/>
	<path id="XMLID_11_" class="st0" d="M275.3,430.9c-1.3,1.3-0.7,4.2,1,4.8c2.1,0.8,3.6-0.6,3.1-3
		C279.1,430.8,276.5,429.7,275.3,430.9z"/>
	<path id="XMLID_12_" class="st0" d="M357,431.8c-0.9,2.2,2.2,5.3,3.7,3.8s0.7-4.7-1.4-5.1C358.4,430.3,357.3,430.9,357,431.8z"/>
	<path id="XMLID_13_" class="st0" d="M266.3,431.9c-0.4,0.4-0.7,2.4-0.7,4.4c0,3.5-0.2,3.7-2.7,3.2c-4.2-0.8-5.3,1.8-5.3,12.4
		c0,6.2,0.4,9.5,1.3,10.2c0.7,0.6,3.6,1.1,6.5,1h5.2l-0.2-15.6c-0.3-13.2-0.5-15.7-1.8-16C267.7,431.4,266.7,431.5,266.3,431.9z
		 M265.1,451.4c0,6.8-0.3,8.4-1.5,8.4s-1.6-1.6-1.8-7.4c-0.3-8.2,0.2-10.5,2.1-9.8C264.7,442.8,265.1,445.5,265.1,451.4z"/>
	<path id="XMLID_16_" class="st0" d="M216.6,448.3c0,14.3,0.1,15,2,15c1.9,0,2-0.7,2.1-11.3l0.1-11.2l2.1,9.2
		c2.9,12.5,4.6,12.6,7.4,0.5l2.1-8.7l0.1,10.7c0.1,10.1,0.2,10.8,2.1,10.8c1.9,0,2-0.7,2-15.1v-15l-2.7,0.3
		c-2.3,0.3-2.9,1.1-4.5,6.3c-1,3.3-1.8,7.1-1.8,8.5c-0.1,3.8-1.4,0.8-3.5-7.8c-1.6-6.9-1.8-7.2-4.6-7.2h-2.9V448.3z"/>
	<path id="XMLID_17_" class="st0" d="M308.6,448.3v15h4.4c2.8,0,5.2-0.7,6.7-1.9c2.2-1.7,2.4-2.9,2.8-11.1c0.2-5.6-0.2-10.2-0.9-12
		c-1.3-3.1-5.2-5-10.1-5h-2.9V448.3z M317.4,447.7c0.3,9.9-0.5,12.6-3.4,12.6c-1.1,0-1.4-2.4-1.4-11.6c0-11.4,0-11.5,2.3-11.2
		C317,437.8,317.1,438.3,317.4,447.7z"/>
	<path id="XMLID_20_" class="st0" d="M243.2,441.2c-2.4,2.6-3.2,12.4-1.4,17.6c1.2,3.7,1.6,4,5.3,4.3c2.9,0.3,4.3-0.1,5.2-1.4
		c2-2.7,1.6-5.4-0.7-5.4c-1.4,0-2,0.7-2,2.1s-0.5,1.9-1.7,1.7c-1.3-0.2-1.9-1.4-2.1-4.1l-0.3-3.7h4h4.1v-4.8c0-3.5-0.5-5.4-1.8-6.5
		C249.3,438.7,245.3,438.9,243.2,441.2z M249.4,446.1c0.3,2.7,0,3.2-1.7,3.2c-1.6,0-2.1-0.6-2.1-2.8
		C245.6,441.2,248.9,440.9,249.4,446.1z"/>
	<polygon id="XMLID_23_" class="st0" points="274.6,451.3 274.6,463.3 277.1,463.3 279.6,463.3 279.6,451.3 279.6,439.3 
		277.1,439.3 274.6,439.3 	"/>
	<path id="XMLID_24_" class="st0" d="M285.4,440.4c-2.2,1.2-2.5,6.9-0.4,6.9c0.8,0,1.7-1.1,2-2.5c0.8-3.3,3.4-3.2,4.2,0.2
		c0.6,2.1,0.3,2.9-1.2,3.7c-3.6,2.1-7.4,6.5-7.4,8.6c0,4.7,1.7,5.9,7.5,5.8l5.5-0.2v-10.2c0-8-0.3-10.6-1.6-11.8
		C292.3,439.1,288,438.9,285.4,440.4z M291.4,456c-0.2,2.5-0.8,3.9-1.9,4.1c-2.4,0.4-3.2-2.7-1.4-5.4
		C290.4,451.2,291.8,451.8,291.4,456z"/>
	<path id="XMLID_27_" class="st0" d="M328,441.4c-2.4,2.6-3.2,15.1-1.2,18.9c2.6,4.9,11.8,3.3,11.8-2.1c0-2.7-3.6-2.5-4.3,0.2
		c-0.9,3.3-3.2,1.7-3.5-2.4l-0.3-3.7h4h4.1v-4.8c0-3.5-0.5-5.4-1.8-6.5C334.3,438.7,330.3,438.9,328,441.4z M334.4,446.1
		c0.3,2.7,0,3.2-1.7,3.2c-1.6,0-2.1-0.6-2.1-2.8C330.6,441.2,333.9,440.9,334.4,446.1z"/>
	<path id="XMLID_30_" class="st0" d="M343.2,440.9c-2.6,2.5-1.9,5.8,2.4,11.5c4.1,5.5,4.5,7.2,1.8,7.7c-1,0.2-1.8-0.7-2.2-2.3
		c-0.4-1.5-1.2-2.5-1.9-2.2c-1.7,0.5-2.1,4.5-0.7,6.3c1.6,1.9,7.5,1.8,9.4-0.2c2.7-2.7,1.9-5.7-3.7-12.6c-1.8-2.3-2.7-4.3-2.3-5.3
		c0.8-2.2,3-1.4,3.4,1.3c0.2,1.2,0.9,2.2,1.7,2.2c2.1,0,2.7-3.1,1-5.6C350.3,438.9,345.6,438.5,343.2,440.9z"/>
	<polygon id="XMLID_31_" class="st0" points="356.6,451.3 356.6,463.3 359.1,463.3 361.6,463.3 361.6,451.3 361.6,439.3 
		359.1,439.3 356.6,439.3 	"/>
	<path id="XMLID_32_" class="st0" d="M367.1,441.2c-1.1,1.3-1.5,3.9-1.5,9.2c0,9.2,1.7,12.4,6.1,11.5c2.5-0.5,2.9-0.3,2.9,1.8
		c0,3.4-2.4,5.1-4.3,3.1c-2.1-2-3.7-1.9-3.7,0.3c0,4.3,6.4,5.8,10,2.2c1.8-1.8,2-3.3,2-15.8v-13.8l-5-0.1
		C370.2,439.6,368.2,440,367.1,441.2z M374.4,449.7c0.3,7.4-1,10.5-3.4,8.5c-0.9-0.7-1.4-3.3-1.4-6.9c0-7,0.7-9.2,2.9-8.8
		C373.7,442.8,374.2,444.3,374.4,449.7z"/>
	<path id="XMLID_35_" class="st0" d="M383.6,451.3c0,11.3,0.1,12,2,12s2-0.7,2-10c0-8.3,0.3-10.2,1.6-10.7c2.6-1,3.4,1.6,3.4,11.4
		c0,8.6,0.1,9.3,2,9.3s2-0.7,2-10.8c0-7.1-0.4-11.2-1.2-12c-1.6-1.6-5-1.5-6.7,0c-1.1,1-1.4,1-1.8,0c-0.3-0.6-1.1-1.2-1.9-1.2
		C383.9,439.3,383.6,441.6,383.6,451.3z"/>
</g>
</svg>
